<mxfile host="app.diagrams.net" modified="2024-06-13T03:24:56.615Z" agent="Mozilla/5.0 (Macintosh; Intel Mac OS X 10_15_7) AppleWebKit/605.1.15 (KHTML, like Gecko) Version/17.2 Safari/605.1.15" version="24.5.4" etag="cdfq85s9-Sy1o0s-5Nss" type="github">
  <diagram name="Page-1" id="0_-mbAvTq8MQjPk_Jp9x">
    <mxGraphModel>
      <root>
        <mxCell id="0" />
        <mxCell id="1" parent="0" />
      </root>
    </mxGraphModel>
  </diagram>
</mxfile>
